HIERARCHY
ROOT hip
{
	OFFSET 0.000000 0.000000 0.000000 
	CHANNELS 6 Xposition Yposition Zposition Xrotation Zrotation Yrotation
	JOINT abdomen
	{
		OFFSET 0.000000 3.402643 0.000000 
		CHANNELS 3 Xrotation Zrotation Yrotation
		JOINT chest
		{
			OFFSET 0.000000 8.438565 -0.680529 
			CHANNELS 3 Xrotation Zrotation Yrotation
			JOINT neck
			{
				OFFSET 0.000000 10.207942 -0.272212 
				CHANNELS 3 Xrotation Zrotation Yrotation
				JOINT head
				{
					OFFSET 0.000000 3.130431 0.000000 
					CHANNELS 3 Xrotation Zrotation Yrotation
					End Site
					{
						OFFSET 0.000000 3.130435 0.000000 
					}
				}
			}
			JOINT lCollar
			{
				OFFSET 3.470700 6.669187 -0.816635 
				CHANNELS 3 Yrotation Zrotation Xrotation
				JOINT lShldr
				{
					OFFSET 3.198488 0.000000 0.000000 
					CHANNELS 3 Zrotation Yrotation Xrotation
					JOINT lForeArm
					{
						OFFSET 10.139888 0.000000 0.000000 
						CHANNELS 3 Yrotation Zrotation Xrotation
						JOINT lHand
						{
							OFFSET 8.370511 0.000000 0.000000 
							CHANNELS 3 Zrotation Yrotation Xrotation
							End Site
							{
								OFFSET 4.083176 0.000000 0.000000 
							}
						}
					}
				}
			}
			JOINT rCollar
			{
				OFFSET -3.470700 6.669187 -0.816635 
				CHANNELS 3 Yrotation Zrotation Xrotation
				JOINT rShldr
				{
					OFFSET -3.198488 0.000000 0.000000 
					CHANNELS 3 Zrotation Yrotation Xrotation
					JOINT rForeArm
					{
						OFFSET -10.139888 0.000000 0.000000 
						CHANNELS 3 Yrotation Zrotation Xrotation
						JOINT rHand
						{
							OFFSET -8.370511 0.000000 0.000000 
							CHANNELS 3 Zrotation Yrotation Xrotation
							End Site
							{
								OFFSET -4.083176 0.000000 0.000000 
							}
						}
					}
				}
			}
		}
	}
	JOINT lThigh
	{
		OFFSET 5.308129 -1.633274 1.361059 
		CHANNELS 3 Xrotation Zrotation Yrotation
		JOINT lShin
		{
			OFFSET -2.041588 -20.007561 0.000000 
			CHANNELS 3 Xrotation Zrotation Yrotation
			JOINT lFoot
			{
				OFFSET 0.000000 -19.190928 -1.224953 
				CHANNELS 3 Xrotation Yrotation Zrotation
				End Site
				{
					OFFSET 0.000000 -2.449906 4.627600 
				}
			}
		}
	}
	JOINT rThigh
	{
		OFFSET -5.308129 -1.633274 1.361059 
		CHANNELS 3 Xrotation Zrotation Yrotation
		JOINT rShin
		{
			OFFSET 2.041588 -20.007561 0.000000 
			CHANNELS 3 Xrotation Zrotation Yrotation
			JOINT rFoot
			{
				OFFSET 0.000000 -19.190928 -1.224953 
				CHANNELS 3 Xrotation Yrotation Zrotation
				End Site
				{
					OFFSET 0.000000 -2.449906 4.627600 
				}
			}
		}
	}
}
MOTION
Frames: 16
Frame Time: 0.033333
-195.787048 16.497086 49.630550 -2.207031 -28.818357 86.269531 18.007813 -2.314453 -12.725004 -3.173828 0.869141 -1.982273 -11.328125 2.841797 5.000484 -1.425781 6.845703 5.450383 1.044922 -2.822266 -0.126472 -84.472656 -18.134766 -5.126953 -72.451172 -24.248045 -13.003802 15.751955 17.753906 4.846729 4.658203 -9.716797 -0.068359 68.447266 -53.525391 -20.810547 61.679688 52.880863 -3.679661 -28.242189 14.980470 -8.164062 -4.791193 -1.445867 13.135338 10.485842 3.817835 -1.525787 -4.954901 -1.122661 -12.120165 -57.982044 9.480479 2.864394 60.616753 6.154397 -9.161129 34.472855 6.635389 7.091946 
-193.723831 16.998690 49.763050 -1.796875 -28.115238 84.843750 18.007813 -2.314453 -12.725004 -2.646484 1.748047 -1.669922 -11.328125 2.841797 5.000484 0.351562 5.966797 5.673828 1.044922 -2.822266 -0.126472 -83.457031 -18.847656 -6.712138 -76.171875 -24.892578 -12.339640 15.751955 17.753906 4.846729 4.658203 -9.716797 -0.068359 67.656250 -56.855473 -22.060547 70.078125 54.697266 -7.919921 -28.242189 14.980470 -8.164062 -1.984852 -1.425807 12.041178 11.476510 3.279138 -0.011458 -5.194818 -0.837010 -12.201003 -56.772404 9.832496 4.150491 51.208759 5.806207 -9.199685 34.334625 6.512069 7.264044 
-189.474380 16.913511 50.378227 -0.205078 -26.718763 83.569824 18.007813 -2.314453 -12.725004 -0.712891 2.626953 -1.445313 -11.328125 2.841797 5.000484 0.527344 4.560540 5.498832 1.044922 -2.822266 -0.126472 -80.683594 -19.726563 -8.997437 -78.310547 -27.294924 -11.503908 15.751955 17.753906 4.846729 4.658203 -9.716797 -0.068359 71.904297 -59.111324 -27.303303 82.705078 53.847652 -13.142650 -28.242189 14.980470 -8.164062 -0.769265 -2.702503 9.753140 20.699545 3.950722 -0.136451 -5.081114 -0.882229 -12.395079 -52.499546 8.593711 3.593971 38.327702 0.358998 -4.652908 34.274471 6.765905 7.126070 
-187.411179 16.137445 50.832508 0.771484 -25.664013 83.814148 18.007813 -2.314453 -12.725004 0.878906 2.802735 -1.884766 -11.328125 2.841797 5.000484 -0.361328 3.330078 5.244140 1.044922 -2.822266 -0.126472 -79.638672 -18.847658 -9.462891 -77.753906 -28.398436 -10.503167 15.751955 17.753906 4.846729 4.658203 -9.716797 -0.068359 75.468750 -58.212891 -29.570311 87.871094 51.904297 -15.183468 -28.242189 14.980470 -8.164062 -2.523088 -3.452412 7.412131 30.417025 4.530750 0.305193 -5.355166 -0.741192 -11.976648 -50.249279 7.362262 3.289369 35.474434 -2.429269 -1.782368 34.447754 6.835691 6.948113 
-183.294189 14.282450 51.381439 2.294922 -23.720703 85.488281 18.007813 -2.314453 -12.725004 3.164063 3.857422 -2.763015 -11.328125 2.841797 5.000484 -3.173828 0.693359 5.234493 1.044922 -2.822266 -0.126472 -79.619141 -13.046875 -8.996346 -72.724609 -30.546873 -7.802735 15.751955 17.753906 4.846729 4.658203 -9.716797 -0.068359 80.976563 -52.578125 -29.910095 91.113281 46.396484 -13.688712 -28.242189 14.980470 -8.164062 -11.121854 -5.927122 3.601636 55.081814 4.386161 1.689767 -5.193693 -0.746026 -12.363467 -45.665085 4.910616 1.425665 34.465263 -2.555602 1.469488 34.521370 7.199863 6.946009 
-181.202637 13.383346 51.608574 2.470703 -22.841797 86.513672 18.007813 -2.314453 -12.725004 4.052734 4.550782 -2.831256 -11.328125 2.841797 5.000484 -4.580078 -0.878918 5.165797 1.044922 -2.822266 -0.126472 -81.357422 -8.652345 -7.763673 -67.949219 -30.566408 -5.507813 15.751955 17.753906 4.846729 4.658203 -9.716797 -0.068359 82.636719 -48.378902 -28.457031 91.083984 42.949219 -11.823059 -28.242189 14.980470 -8.164062 -16.587246 -7.351883 1.779024 67.700874 3.339711 2.889121 -5.382982 -0.873981 -12.215399 -42.824711 3.846348 0.610049 36.237469 -1.368913 3.078851 34.364365 7.068864 7.128117 
-179.111008 12.645132 51.816792 2.646484 -21.953129 87.711189 18.007813 -2.314453 -12.725004 4.755859 5.078125 -2.909292 -11.328125 2.841797 5.000484 -5.986328 -2.275391 5.155862 1.044922 -2.822266 -0.126472 -83.789063 -4.082031 -6.181641 -61.582031 -30.136717 -2.729472 15.751955 17.753906 4.846729 4.658203 -9.716797 -0.068359 82.851563 -43.125000 -25.117189 89.863281 39.033203 -9.566697 -28.242189 14.980470 -8.164062 -23.311594 -8.600502 -0.785784 79.084969 0.889117 3.549937 -5.206709 -0.816393 -12.214069 -39.914528 2.958556 -1.047285 39.151356 -2.859069 3.031748 34.582989 6.910637 7.258326 
-174.615494 12.067813 52.204826 1.875000 -20.556641 90.367668 18.007813 -2.314453 -12.725004 5.126953 6.123046 -2.080078 -11.328125 2.841797 5.000484 -6.347656 -3.847656 4.462235 1.044922 -2.822266 -0.126472 -89.384766 5.595703 -4.599609 -49.101559 -26.591797 -0.015159 15.751955 17.753906 4.846729 4.658203 -9.716797 -0.068359 81.894531 -30.878906 -16.552734 86.123047 30.556641 -4.628906 -28.242189 14.980470 -8.164062 -34.594765 -6.512469 -4.918316 93.088852 -2.118989 -1.357949 -5.016152 -0.735731 -12.159851 -33.727455 2.792092 -3.621302 41.593601 -3.373959 2.668121 34.373970 7.032619 7.134522 
-172.363007 12.162457 52.375179 1.865234 -19.687399 90.924446 18.007813 -2.314453 -12.725004 5.117188 5.771485 -0.877924 -11.328125 2.841797 5.000484 -5.292969 -4.208984 3.544922 1.044922 -2.822266 -0.126472 -91.142578 10.517579 -4.773607 -45.654297 -25.009768 -0.796653 15.751955 17.753906 4.846729 4.658203 -9.716797 -0.068359 81.083984 -24.570311 -11.953124 85.664063 27.128906 -3.769531 -28.242189 14.980470 -8.164062 -40.222286 -4.765662 -5.148764 95.628593 -2.510811 -4.624283 -5.240310 -0.448254 -12.238257 -29.206778 2.773052 -5.082245 40.489281 -3.966043 2.470973 34.351273 7.079195 7.129389 
-167.574081 12.834418 52.715900 2.041015 -19.150391 92.294922 18.007813 -2.314453 -12.725004 4.042969 3.681641 2.022111 -11.328125 2.841797 5.000484 -1.416016 -2.460938 0.585518 1.044922 -2.822266 -0.126472 -90.488281 19.121094 -6.705784 -43.730469 -24.453127 -1.894530 15.751955 17.753906 4.846729 4.658203 -9.716797 -0.068359 80.556641 -14.921875 -3.066406 88.837891 23.017576 -5.550693 -28.242189 14.980470 -8.164062 -50.733044 -3.689527 -6.587397 91.805237 -4.072326 -9.490941 -5.057125 -1.040882 -12.079884 -19.705076 2.255189 -7.567282 35.741997 -4.244077 0.776064 34.529476 7.169119 6.952559 
-165.113373 13.430666 52.820007 1.855469 -18.984375 93.405029 18.007813 -2.314453 -12.725004 2.988281 2.802734 3.486328 -11.328125 2.841797 5.000484 1.054688 -1.054684 -1.259949 1.044922 -2.822266 -0.126472 -88.593750 23.867188 -8.638625 -45.371098 -26.982422 -2.734373 15.751955 17.753906 4.846729 4.658203 -9.716797 -0.068359 80.507813 -12.285157 -0.422000 91.914063 23.203125 -5.878906 -28.242189 14.980470 -8.164062 -53.407867 -4.402392 -7.138862 84.605850 -5.448394 -8.698118 -5.103006 -1.234369 -12.186007 -14.557172 1.738075 -8.499555 32.850452 -3.536591 -0.404289 33.863049 6.890885 7.167412 
-162.624283 13.837628 52.952499 2.226563 -18.974611 94.697266 18.007813 -2.314453 -12.725004 1.757813 1.396484 4.609613 -11.328125 2.841797 5.000484 3.691406 0.517578 -3.134766 1.044922 -2.822266 -0.126472 -85.117188 28.251955 -10.302734 -48.486332 -30.712889 -3.955079 15.751955 17.753906 4.846729 4.658203 -9.716797 -0.068359 79.589844 -10.703126 1.902483 96.259766 25.068357 -7.601794 -28.242189 14.980470 -8.164062 -54.963791 -5.984779 -7.424798 74.820778 -7.216673 -9.797401 -5.292932 -1.149398 -12.541000 -9.943017 0.527948 -9.654643 29.839127 -2.641372 -2.153873 34.429981 6.863659 6.951453 
-157.532516 14.509594 53.141792 2.607422 -19.677736 97.897102 18.007813 -2.314453 -12.725004 -0.712891 -1.054688 4.931640 -11.328125 2.841797 5.000484 7.578125 4.355469 -5.917227 1.044922 -2.822266 -0.126472 -78.349609 34.921875 -13.662109 -54.208984 -36.601563 -5.791014 15.751955 17.753906 4.846729 4.658203 -9.716797 -0.068359 76.015625 -9.824219 4.890913 105.976563 29.345703 -13.681640 -28.242189 14.980470 -8.164062 -53.717186 -9.842340 -9.550333 51.469753 -9.853044 -7.140364 -5.262085 -1.175278 -12.561145 -3.074096 -1.501916 -13.150335 25.966999 -0.830513 -3.741141 34.271404 6.705331 7.299154 
-154.939301 14.632627 53.245895 2.421875 -19.501953 99.889320 18.007813 -2.314453 -12.725004 -1.240234 -2.109375 4.081672 -11.328125 2.841797 5.000484 8.837891 6.250000 -6.580969 1.044922 -2.822266 -0.126472 -75.927734 37.548824 -15.078126 -57.490234 -38.925781 -7.695311 15.751955 17.753906 4.846729 4.658203 -9.716797 -0.068359 73.359375 -9.638674 5.947266 110.898445 30.869143 -17.046026 -28.242189 14.980470 -8.164062 -51.617397 -11.599778 -11.639977 39.964073 -8.602365 -4.888365 -5.326594 -1.275761 -12.787964 -0.712241 -2.231713 -15.383275 26.335215 -0.009895 -3.717097 34.478695 6.649956 7.102146 
-149.998962 14.348698 53.331070 1.669922 -19.335936 102.421875 18.007813 -2.314453 -12.725004 -0.888672 -2.988281 2.851053 -11.328125 2.841797 5.000484 8.740234 9.902344 -6.922148 1.044922 -2.822266 -0.126472 -74.414063 39.472652 -18.007813 -63.281250 -41.162109 -11.093749 15.751955 17.753906 4.846729 4.658203 -9.716797 -0.068359 69.130859 -9.990233 6.826172 117.529289 32.236328 -21.894533 -28.242189 14.980470 -8.164062 -46.497517 -13.854107 -14.092552 26.215227 -3.515069 -3.890436 -5.296729 -0.815558 -12.599786 -0.711612 -0.709889 -17.569557 33.484245 -2.646475 -5.055264 34.454006 6.639294 7.438531 
-147.566650 14.036379 53.387859 1.113281 -18.984375 103.486328 18.007813 -2.314453 -12.725004 -0.361328 -2.988281 1.943359 -11.328125 2.841797 5.000484 8.251953 11.484375 -6.435547 1.044922 -2.822266 -0.126472 -74.619141 39.111328 -19.222357 -65.429688 -41.445316 -12.255859 15.751955 17.753906 4.846729 4.658203 -9.716797 -0.068359 67.880859 -11.396484 7.529296 119.726563 32.333988 -23.628273 -28.242189 14.980470 -8.164062 -43.549622 -14.391948 -14.765894 23.194674 -1.591708 -4.166015 -5.658726 -1.271239 -12.612885 -2.762085 0.381817 -19.752836 41.208576 -5.273290 -5.687102 34.320267 6.491521 7.254003 
